<svg xmlns="http://www.w3.org/2000/svg" width="512" height="512" viewBox="0 0 512 512">
  <circle cx="256" cy="256" r="256" fill="#DFF6EE"/>
  <path d="M 120 300 Q 95 285 100 260 Q 130 270 140 300 Z" fill="#F2A63D" />
  <ellipse cx="245" cy="320" rx="130" ry="85" fill="#FFCB3D" />
  <ellipse cx="230" cy="345" rx="80" ry="45" fill="#FFE082" opacity="0.6"/>
  <path d="M 200 290 q 45 -15 60 15 q -30 20 -60 -15 z" fill="#F2A63D" opacity="0.9"/>
  <path d="M 215 296 Q 235 292 248 302" fill="none" stroke="#E8952E" stroke-width="3" stroke-linecap="round" opacity="0.6"/>
  <circle cx="330" cy="235" r="72" fill="#FFCB3D" />
  <path d="M 320 168 q 10 -18 25 -10 q -5 15 -25 10 z" fill="#F2A63D" />
  <path d="M 385 220 Q 440 218 445 240 Q 440 258 385 252 Z" fill="#F2994A" />
  <circle cx="415" cy="232" r="3" fill="#C97A2B" opacity="0.6"/>
  <circle cx="345" cy="218" r="10" fill="#20303A" />
  <circle cx="349" cy="213" r="3" fill="#FFFFFF" />
  <path d="M 150 400 q 22 12 44 0" fill="none" stroke="#9FE0D2" stroke-width="9" stroke-linecap="round"/>
  <path d="M 215 412 q 22 12 44 0" fill="none" stroke="#9FE0D2" stroke-width="9" stroke-linecap="round"/>
  <path d="M 320 405 q 22 12 44 0" fill="none" stroke="#9FE0D2" stroke-width="9" stroke-linecap="round"/>
</svg>
