<svg xmlns="http://www.w3.org/2000/svg" width="512" height="512" viewBox="0 0 512 512">
  <circle cx="256" cy="256" r="256" fill="#FBE3EC"/>
  <ellipse cx="200" cy="168" rx="26" ry="32" fill="#F2A3BE" transform="rotate(-20 200 168)" />
  <ellipse cx="312" cy="168" rx="26" ry="32" fill="#F2A3BE" transform="rotate(20 312 168)" />
  <ellipse cx="256" cy="210" rx="90" ry="82" fill="#F5AFC7" />
  <ellipse cx="256" cy="236" rx="46" ry="34" fill="#E88AA6" />
  <ellipse cx="240" cy="236" rx="8" ry="10" fill="#B85C79" />
  <ellipse cx="272" cy="236" rx="8" ry="10" fill="#B85C79" />
  <circle cx="222" cy="200" r="13" fill="#2B2B2B" />
  <circle cx="290" cy="200" r="13" fill="#2B2B2B" />
  <circle cx="227" cy="195" r="4" fill="#FFFFFF" />
  <circle cx="295" cy="195" r="4" fill="#FFFFFF" />
  <circle cx="200" cy="238" r="11" fill="#FF9EB8" opacity="0.5"/>
  <circle cx="312" cy="238" r="11" fill="#FF9EB8" opacity="0.5"/>
  <path d="M 355 340 Q 375 335 370 355 Q 365 372 348 365 Q 340 358 350 348" fill="none" stroke="#E88AA6" stroke-width="9" stroke-linecap="round"/>
  <ellipse cx="256" cy="350" rx="105" ry="85" fill="#F5AFC7" />
  <ellipse cx="256" cy="366" rx="55" ry="45" fill="#F8C2D6" opacity="0.6" />
  <rect x="185" y="395" width="30" height="42" rx="15" fill="#F5AFC7" />
  <rect x="297" y="395" width="30" height="42" rx="15" fill="#F5AFC7" />
  <rect x="210" y="405" width="32" height="52" rx="16" fill="#F5AFC7" />
  <rect x="270" y="405" width="32" height="52" rx="16" fill="#F5AFC7" />
  <rect x="183" y="432" width="34" height="14" rx="7" fill="#B85C79" />
  <rect x="295" y="432" width="34" height="14" rx="7" fill="#B85C79" />
  <rect x="207" y="452" width="38" height="15" rx="7" fill="#B85C79" />
  <rect x="267" y="452" width="38" height="15" rx="7" fill="#B85C79" />
  <circle cx="205" cy="450" r="5" fill="#B5793A" opacity="0.6"/>
  <circle cx="295" cy="450" r="5" fill="#B5793A" opacity="0.6"/>
  <circle cx="215" cy="440" r="3" fill="#B5793A" opacity="0.5"/>
</svg>
