<svg xmlns="http://www.w3.org/2000/svg" width="512" height="512" viewBox="0 0 512 512">
  <circle cx="256" cy="256" r="256" fill="#E9F9E2"/>
  <line x1="256" y1="300" x2="256" y2="420" stroke="#4CAF50" stroke-width="14" stroke-linecap="round" />
  <path d="M 256 380 q -55 -10 -60 -45 q 45 -5 60 45 z" fill="#4CAF50" />
  <ellipse cx="256" cy="220" rx="34" ry="62" fill="#E56AA8" />
  <ellipse cx="256" cy="220" rx="34" ry="62" fill="#E56AA8" transform="rotate(60 256 220)" />
  <ellipse cx="256" cy="220" rx="34" ry="62" fill="#E56AA8" transform="rotate(120 256 220)" />
  <ellipse cx="256" cy="220" rx="34" ry="62" fill="#E56AA8" transform="rotate(180 256 220)" />
  <ellipse cx="256" cy="220" rx="34" ry="62" fill="#E56AA8" transform="rotate(240 256 220)" />
  <ellipse cx="256" cy="220" rx="34" ry="62" fill="#E56AA8" transform="rotate(300 256 220)" />
  <circle cx="256" cy="220" r="34" fill="#FFD54F" />
</svg>
