<svg xmlns="http://www.w3.org/2000/svg" width="512" height="512" viewBox="0 0 512 512">
  <circle cx="256" cy="256" r="256" fill="#EAF6FB"/>
  <path d="M 110 370 A 146 146 0 0 1 402 370" fill="none" stroke="#E5473A" stroke-width="22" stroke-linecap="round"/>
  <path d="M 132 370 A 124 124 0 0 1 380 370" fill="none" stroke="#F2A65A" stroke-width="22" stroke-linecap="round"/>
  <path d="M 154 370 A 102 102 0 0 1 358 370" fill="none" stroke="#FFD54F" stroke-width="22" stroke-linecap="round"/>
  <path d="M 176 370 A 80 80 0 0 1 336 370" fill="none" stroke="#4CAF50" stroke-width="22" stroke-linecap="round"/>
  <path d="M 198 370 A 58 58 0 0 1 314 370" fill="none" stroke="#5B9BD5" stroke-width="22" stroke-linecap="round"/>
  <ellipse cx="120" cy="378" rx="42" ry="26" fill="#FFFFFF" opacity="0.9"/>
  <ellipse cx="392" cy="378" rx="42" ry="26" fill="#FFFFFF" opacity="0.9"/>
  <circle cx="90" cy="368" r="16" fill="#FFFFFF" opacity="0.9"/>
  <circle cx="422" cy="368" r="16" fill="#FFFFFF" opacity="0.9"/>
</svg>
